<?xml version="1.0" encoding="UTF-8"?>
<svg version="1.1" xmlns="http://www.w3.org/2000/svg" width="1002" height="310">
<path d="M0 0 C330.66 0 661.32 0 1002 0 C1002 102.3 1002 204.6 1002 310 C671.34 310 340.68 310 0 310 C0 207.7 0 105.4 0 0 Z " fill="#FBFBFC" transform="translate(0,0)"/>
<path d="M0 0 C0.85464844 0.30292969 1.70929688 0.60585938 2.58984375 0.91796875 C21.0139934 7.76829017 37.43200175 21.80704315 47 39 C47.67578125 41.78125 47.67578125 41.78125 48 44 C48.66 44 49.32 44 50 44 C58.91054638 64.77993831 58.80493132 86.17760359 54 108 C53.34 108 52.68 108 52 108 C51.87625 109.051875 51.7525 110.10375 51.625 111.1875 C50.67180899 117.00196519 48.80241252 121.45565332 45 126 C35.77448747 132 35.77448747 132 32 132 C32 132.66 32 133.32 32 134 C31.40050537 134.01981934 30.80101074 134.03963867 30.18334961 134.06005859 C27.43433529 134.15605003 24.68600507 134.26542505 21.9375 134.375 C20.52307617 134.42140625 20.52307617 134.42140625 19.08007812 134.46875 C13.7693578 134.69080102 8.92588311 134.91178427 4 137 C0.26717537 141.46380411 0.5478793 145.96390715 0.56640625 151.5 C0.5611644 152.41330078 0.55592255 153.32660156 0.55052185 154.26757812 C0.54411293 156.1940001 0.545424 158.12046126 0.55395508 160.046875 C0.56247191 162.99029278 0.53367741 165.93177344 0.50195312 168.875 C0.5003411 170.74999942 0.50091868 172.62500227 0.50390625 174.5 C0.49267227 175.37720703 0.48143829 176.25441406 0.46986389 177.15820312 C0.5169673 181.2974373 0.65528416 183.45177509 2.90600586 187.03125 C5.95641079 189.89920679 7.57153181 190.11286432 11.6484375 190.10546875 C12.57140625 190.12029297 13.494375 190.13511719 14.4453125 190.15039062 C16.39047593 190.17502936 18.33598368 190.18039595 20.28125 190.16601562 C22.97224076 190.22785594 25.38387361 190.36238287 28 191 C30.5078125 193.6875 30.5078125 193.6875 32 197 C32.4434375 197.95519531 32.886875 198.91039062 33.34375 199.89453125 C33.7253125 200.85746094 34.106875 201.82039062 34.5 202.8125 C35.97903885 206.52154479 37.53749746 210.11240654 39.3125 213.6875 C41.25993514 218.08519165 42.10482009 222.24927363 41 227 C38.5625 230 38.5625 230 36 232 C35.67 232.33 35.34 232.66 35 233 C31.2662091 233.35901836 28.76016339 233.3800817 25.375 231.6875 C21.77841665 227.617682 20.06312719 222.98287444 18 218 C17.45358642 216.75646096 16.90398734 215.51431781 16.3515625 214.2734375 C12 204.41429007 12 204.41429007 12 201 C11.34 201 10.68 201 10 201 C9.67 199.02 9.34 197.04 9 195 C8.34 195 7.68 195 7 195 C7 195.66 7 196.32 7 197 C6.34 197 5.68 197 5 197 C4.89816406 197.7321875 4.79632813 198.464375 4.69140625 199.21875 C3.9250889 202.3013373 2.83762052 203.97227703 0.9375 206.5 C-1.88790691 210.3806099 -4.46258196 214.32404927 -6.9375 218.4375 C-11.24478359 225.52151786 -15.96047371 232.23885956 -21.171875 238.6875 C-23.01140167 240.85292034 -23.01140167 240.85292034 -24 243 C-10.14 243 3.72 243 18 243 C18.33 244.65 18.66 246.3 19 248 C16.3526993 250.6473007 14.41012574 250.24536806 10.80801392 250.27105713 C9.93937714 250.26700867 9.07074036 250.26296021 8.17578125 250.25878906 C6.8049086 250.26404602 6.8049086 250.26404602 5.40634155 250.26940918 C2.37498455 250.27823649 -0.65614048 250.27237381 -3.6875 250.265625 C-5.78735397 250.26697136 -7.88720764 250.26891165 -9.98706055 250.27142334 C-14.39211998 250.27437596 -18.79709841 250.27007251 -23.20214844 250.26074219 C-28.85854031 250.24934761 -34.51474241 250.25590634 -40.17112732 250.26788712 C-44.50843749 250.27510198 -48.84570241 250.2728195 -53.18301392 250.26763153 C-55.26909406 250.266294 -57.35517826 250.26794635 -59.44125366 250.27259064 C-62.35287414 250.27764973 -65.264184 250.26995432 -68.17578125 250.25878906 C-69.04441803 250.26283752 -69.91305481 250.26688599 -70.80801392 250.27105713 C-76.77147228 250.22852772 -76.77147228 250.22852772 -79 248 C-78.67 246.35 -78.34 244.7 -78 243 C-63.48 243 -48.96 243 -34 243 C-36.31 239.7 -38.62 236.4 -41 233 C-42.48868097 230.83985939 -43.96976282 228.67442545 -45.4375 226.5 C-46.45650391 224.99953125 -46.45650391 224.99953125 -47.49609375 223.46875 C-49 221 -49 221 -49 219 C-49.66 219 -50.32 219 -51 219 C-52.7265625 216.4453125 -52.7265625 216.4453125 -54.625 213.125 C-55.25664063 212.03445312 -55.88828125 210.94390625 -56.5390625 209.8203125 C-58 207 -58 207 -58 205 C-58.66 205 -59.32 205 -60 205 C-60.50789063 204.09378906 -61.01578125 203.18757812 -61.5390625 202.25390625 C-66.03790785 194.23539351 -66.03790785 194.23539351 -71 186.5 C-74.565908 181.27000159 -77.63290125 175.76647347 -80.73095703 170.25244141 C-82.18704101 167.6680184 -83.65378351 165.08978416 -85.12109375 162.51171875 C-102.42940358 132.0656545 -102.42940358 132.0656545 -107 121 C-107.4125 120.05125 -107.825 119.1025 -108.25 118.125 C-109 116 -109 116 -109 113 C-109.66 113 -110.32 113 -111 113 C-111.33872513 111.58461283 -111.67074624 110.16762037 -112 108.75 C-112.185625 107.96109375 -112.37125 107.1721875 -112.5625 106.359375 C-113 104 -113 104 -113 100 C-113.66 100 -114.32 100 -115 100 C-119.05646382 76.7584573 -116.01855721 53.81791061 -103 34 C-100.20223352 30.12616948 -97.21707309 26.53079476 -94 23 C-93.06414062 21.94232422 -93.06414062 21.94232422 -92.109375 20.86328125 C-85.88474648 14.20711336 -77.45089677 7.4905878 -69 4 C-68.01 4 -67.02 4 -66 4 C-66 3.34 -66 2.68 -66 2 C-62.7 1.34 -59.4 0.68 -56 0 C-56 -0.66 -56 -1.32 -56 -2 C-37.94583889 -6.59560465 -17.39552269 -7.4929481 0 0 Z " fill="#A7A2EA" transform="translate(183,27)"/>
<path d="M0 0 C0 0.66 0 1.32 0 2 C0.94875 2.061875 1.8975 2.12375 2.875 2.1875 C11.37592267 3.51630154 17.46912161 8.02543563 23.4375 13.9375 C24.19969849 14.69027222 24.19969849 14.69027222 24.97729492 15.45825195 C28.81840909 19.43201818 32 23.31476383 32 29 C32.66 29 33.32 29 34 29 C37.6918995 42.42708689 38.04777384 53.62788999 34 67 C33.34 67 32.68 67 32 67 C31.90460938 67.71671875 31.80921875 68.4334375 31.7109375 69.171875 C30.88774974 72.44653399 29.57410957 74.5031536 27.625 77.25 C27.01914063 78.12140625 26.41328125 78.9928125 25.7890625 79.890625 C24 82 24 82 21 83 C20.505 84.485 20.505 84.485 20 86 C12.00218132 91.88345282 3.08290016 96.11915939 -6.94140625 96.1328125 C-8.31135742 96.13474609 -8.31135742 96.13474609 -9.70898438 96.13671875 C-11.12147461 96.13091797 -11.12147461 96.13091797 -12.5625 96.125 C-13.98079102 96.13080078 -13.98079102 96.13080078 -15.42773438 96.13671875 C-16.33974609 96.13542969 -17.25175781 96.13414062 -18.19140625 96.1328125 C-19.43192749 96.13112061 -19.43192749 96.13112061 -20.69750977 96.12939453 C-22.92595142 96.00416136 -24.86105211 95.61885376 -27 95 C-27 94.34 -27 93.68 -27 93 C-28.9490625 92.7215625 -28.9490625 92.7215625 -30.9375 92.4375 C-39.27686662 90.58576662 -44.94075867 84.54725349 -50 78 C-50.72896484 77.31550781 -50.72896484 77.31550781 -51.47265625 76.6171875 C-59.69804825 67.90794892 -60.54637446 55.30385196 -60.2421875 44 C-59.66087998 31.89038582 -55.05807544 22.07288165 -46.6875 13.3125 C-44 11 -44 11 -42 11 C-42 10.34 -42 9.68 -42 9 C-37.29855662 5.02084541 -31.87866561 3.1208099 -26.00390625 1.578125 C-24.01932828 1.18045908 -24.01932828 1.18045908 -23 0 C-15.42819981 -1.48143917 -7.5406059 -1.71501145 0 0 Z " fill="#FDFDFE" transform="translate(166,62)"/>
<path d="M0 0 C0.82435547 -0.00773438 1.64871094 -0.01546875 2.49804688 -0.0234375 C7.20717676 -0.00838033 11.01185992 0.44244522 15.4375 2.25 C15.4375 2.91 15.4375 3.57 15.4375 4.25 C16.13875 4.476875 16.84 4.70375 17.5625 4.9375 C21.13093613 6.56656867 23.50264511 8.65640731 26.4375 11.25 C26.7675 7.95 27.0975 4.65 27.4375 1.25 C33.7075 1.25 39.9775 1.25 46.4375 1.25 C46.4375 28.31 46.4375 55.37 46.4375 83.25 C40.1675 83.25 33.8975 83.25 27.4375 83.25 C27.1075 79.29 26.7775 75.33 26.4375 71.25 C25.48875 72.405 24.54 73.56 23.5625 74.75 C21.9453125 76.71875 21.9453125 76.71875 20.4375 78.25 C19.7775 78.25 19.1175 78.25 18.4375 78.25 C18.4375 78.91 18.4375 79.57 18.4375 80.25 C15.79011084 81.7106285 14.54301666 82.25 11.4375 82.25 C11.4375 82.91 11.4375 83.57 11.4375 84.25 C8.67184618 85.17188461 7.05466298 85.36785222 4.20703125 85.34765625 C3.40458984 85.34443359 2.60214844 85.34121094 1.77539062 85.33789062 C0.94201172 85.32951172 0.10863281 85.32113281 -0.75 85.3125 C-1.59498047 85.30798828 -2.43996094 85.30347656 -3.31054688 85.29882812 C-5.39456155 85.28705403 -7.47853977 85.2691189 -9.5625 85.25 C-9.5625 84.59 -9.5625 83.93 -9.5625 83.25 C-10.59375 83.146875 -11.625 83.04375 -12.6875 82.9375 C-21.26465074 81.41574745 -26.8837462 76.2885224 -31.92578125 69.3828125 C-34.13540084 65.76707135 -35.15285173 62.4488948 -35.5625 58.25 C-36.2225 58.25 -36.8825 58.25 -37.5625 58.25 C-38.96567432 53.39242747 -38.74668238 48.58205855 -38.75 43.5625 C-38.76224609 42.60666016 -38.77449219 41.65082031 -38.78710938 40.66601562 C-38.79962012 34.54826189 -38.10558644 29.17228038 -36.5625 23.25 C-35.9025 23.25 -35.2425 23.25 -34.5625 23.25 C-34.418125 22.46625 -34.27375 21.6825 -34.125 20.875 C-33.5625 18.25 -33.5625 18.25 -32.5625 16.25 C-31.9025 16.25 -31.2425 16.25 -30.5625 16.25 C-30.376875 15.54875 -30.19125 14.8475 -30 14.125 C-28.01179906 10.14859811 -25.22825172 7.72005588 -21.5625 5.25 C-18.625 4.375 -18.625 4.375 -16.5625 4.25 C-16.5625 3.59 -16.5625 2.93 -16.5625 2.25 C-10.92429036 0.33771355 -5.93181852 -0.05591659 0 0 Z " fill="#241E2B" transform="translate(611.5625,151.75)"/>
<path d="M0 0 C0 0.66 0 1.32 0 2 C0.66 2.04125 1.32 2.0825 2 2.125 C6.40318354 3.40926187 9.67290004 5.87476903 13 9 C14.5 11.875 14.5 11.875 15 14 C15.66 14 16.32 14 17 14 C20 19.625 20 19.625 20 23 C20.66 23 21.32 23 22 23 C24.91067056 34.5127416 24.59149774 45.45395201 22 57 C21.34 57 20.68 57 20 57 C19.9175 57.70125 19.835 58.4025 19.75 59.125 C18.07788479 65.53477496 13.12042891 70.92386909 8 75 C5.78125 75.69921875 5.78125 75.69921875 4 76 C4 76.66 4 77.32 4 78 C2.58603098 78.50757862 1.16868271 79.00574925 -0.25 79.5 C-1.03890625 79.7784375 -1.8278125 80.056875 -2.640625 80.34375 C-5 81 -5 81 -9 81 C-9 81.66 -9 82.32 -9 83 C-15.93 83 -22.86 83 -30 83 C-30 82.34 -30 81.68 -30 81 C-31.216875 80.87625 -32.43375 80.7525 -33.6875 80.625 C-37.06479059 80.21108694 -39.89756695 79.45426549 -43 78 C-43 77.34 -43 76.68 -43 76 C-43.886875 75.773125 -44.77375 75.54625 -45.6875 75.3125 C-49.48230501 73.80889801 -51.36650854 72.08494714 -54 69 C-54.33 68.01 -54.66 67.02 -55 66 C-55.495 65.54625 -55.99 65.0925 -56.5 64.625 C-58.43309736 62.53081119 -58.62452796 60.77849308 -59 58 C-59.66 58 -60.32 58 -61 58 C-63.12224612 51.93643966 -63.30154278 46.39130517 -63.25 40 C-63.25773437 39.0409375 -63.26546875 38.081875 -63.2734375 37.09375 C-63.25853639 31.6697457 -62.79409045 27.1259727 -61 22 C-60.34 22 -59.68 22 -59 22 C-58.01 18.535 -58.01 18.535 -57 15 C-56.34 15 -55.68 15 -55 15 C-54.6596875 14.195625 -54.6596875 14.195625 -54.3125 13.375 C-49.97293836 5.52245989 -44.28903106 2.20801442 -36 -1 C-23.58049118 -4.32665415 -12.28317043 -3.28071961 0 0 Z " fill="#231E2B" transform="translate(454,154)"/>
<path d="M0 0 C0.495 0.99 0.495 0.99 1 2 C1.721875 2.391875 2.44375 2.78375 3.1875 3.1875 C9.23058543 7.08193283 13.62378518 13.2207989 16 20 C16 21.32 16 22.64 16 24 C16.66 24 17.32 24 18 24 C18 30.93 18 37.86 18 45 C-1.14 45 -20.28 45 -40 45 C-36.71580035 57.27319096 -36.71580035 57.27319096 -32 60 C-32 60.66 -32 61.32 -32 62 C-18.28725196 66.70151361 -5.79641787 65.24621597 8 62 C8 61.34 8 60.68 8 60 C9.98 59.34 11.96 58.68 14 58 C14 63.61 14 69.22 14 75 C12.35 75.33 10.7 75.66 9 76 C9 76.66 9 77.32 9 78 C7.44033782 78.508783 5.87710759 79.00663469 4.3125 79.5 C3.44238281 79.7784375 2.57226562 80.056875 1.67578125 80.34375 C-0.99391677 80.99850805 -3.26396684 81.11831495 -6 81 C-6 81.66 -6 82.32 -6 83 C-12.93 83 -19.86 83 -27 83 C-27 82.34 -27 81.68 -27 81 C-28.0725 80.95875 -29.145 80.9175 -30.25 80.875 C-37.66260092 79.92534294 -45.40389883 76.26738347 -50.4375 70.6875 C-54.26133168 65.58149331 -58 60.48580097 -58 54 C-58.66 54 -59.32 54 -60 54 C-61.25237852 49.15945762 -61.14767328 44.39916861 -61.125 39.4375 C-61.12886719 38.58736328 -61.13273438 37.73722656 -61.13671875 36.86132812 C-61.13542969 36.03955078 -61.13414062 35.21777344 -61.1328125 34.37109375 C-61.13168457 33.62786865 -61.13055664 32.88464355 -61.12939453 32.11889648 C-60.99800151 29.96727379 -60.58919579 28.06920646 -60 26 C-59.34 26 -58.68 26 -58 26 C-57.855625 25.071875 -57.71125 24.14375 -57.5625 23.1875 C-57 20 -57 20 -56 17 C-55.34 17 -54.68 17 -54 17 C-53.74734375 16.26007813 -53.4946875 15.52015625 -53.234375 14.7578125 C-50.73658846 9.17731473 -45.88167543 5.15795411 -40.75 2 C-38 1 -38 1 -34 1 C-34 0.34 -34 -0.32 -34 -1 C-22.15356028 -3.82298138 -11.76652175 -3.5675963 0 0 Z " fill="#25202D" transform="translate(933,154)"/>
<path d="M0 0 C1.72723629 1.72723629 1.12944331 4.07408647 1.140625 6.42578125 C1.15996094 7.53244141 1.17929687 8.63910156 1.19921875 9.77929688 C1.23290203 12.12287572 1.25128892 14.46672745 1.25390625 16.81054688 C1.19405116 23.32881262 1.19405116 23.32881262 4.3828125 28.69921875 C5.24648438 29.12847656 6.11015625 29.55773437 7 30 C10.5478299 32.02733137 12.81511427 33.51282362 15 37 C15.99751744 41.96264929 15.71244878 46.63312401 12.9375 50.9375 C10.12734924 54.36765537 7.10459914 55.50024262 3 57 C1.60914462 59.78171075 1.8185984 62.1412918 1.75390625 65.25 C1.72103516 66.4978125 1.68816406 67.745625 1.65429688 69.03125 C1.59310098 71.67699591 1.53580894 74.322835 1.48242188 76.96875 C1.44826172 78.2165625 1.41410156 79.464375 1.37890625 80.75 C1.34132202 82.47476563 1.34132202 82.47476563 1.30297852 84.234375 C1 87 1 87 -1 89 C-3.0234375 88.79296875 -3.0234375 88.79296875 -5.375 88.1875 C-6.14585937 87.99542969 -6.91671875 87.80335938 -7.7109375 87.60546875 C-8.46632813 87.40566406 -9.22171875 87.20585937 -10 87 C-11.33306527 86.66559625 -12.66630921 86.33190022 -14 86 C-14 85.34 -14 84.68 -14 84 C-14.886875 83.938125 -15.77375 83.87625 -16.6875 83.8125 C-21.67725192 83.11271772 -26.19020856 81.12620781 -30.83984375 79.2578125 C-33.37830458 78.24744861 -35.90816919 77.3557468 -38.5 76.5 C-43.47266889 74.36885619 -46.04174936 71.43737596 -49 67 C-49.27415466 64.94000244 -49.27415466 64.94000244 -49.30639648 62.54785156 C-49.32238388 61.64971741 -49.33837128 60.75158325 -49.35484314 59.82623291 C-49.36020584 58.8574823 -49.36556854 57.88873169 -49.37109375 56.890625 C-49.38012222 55.89045349 -49.3891507 54.89028198 -49.39845276 53.85980225 C-49.41296729 51.74152626 -49.42184497 49.62320531 -49.42553711 47.50488281 C-49.43740475 44.27591476 -49.48655519 41.04887549 -49.53710938 37.8203125 C-49.54657705 35.76042598 -49.55381044 33.70052773 -49.55859375 31.640625 C-49.57812607 30.67997131 -49.59765839 29.71931763 -49.61778259 28.72955322 C-49.58120543 23.24849467 -48.96274941 19.60384768 -45.3976593 15.32714844 C-43.44077715 13.46898952 -41.6484372 12.57001045 -39.0859375 11.7421875 C-37.70438477 11.27256592 -37.70438477 11.27256592 -36.29492188 10.79345703 C-34.84956055 10.3388208 -34.84956055 10.3388208 -33.375 9.875 C-31.39212864 9.20637992 -29.41034053 8.53453812 -27.4296875 7.859375 C-26.01574707 7.38467773 -26.01574707 7.38467773 -24.57324219 6.90039062 C-20.60723668 5.51266498 -16.84821233 3.76249337 -13.0546875 1.96875 C-8.36351657 -0.24305682 -5.07118094 -1.59379972 0 0 Z " fill="#A7A2EA" transform="translate(270,145)"/>
<path d="M0 0 C7.26 0 14.52 0 22 0 C25 9 25 9 25 12 C25.66 12 26.32 12 27 12 C27.66 14.97 28.32 17.94 29 21 C29.66 21 30.32 21 31 21 C31.24234375 21.67804688 31.4846875 22.35609375 31.734375 23.0546875 C33.7793989 28.73356156 35.91833487 34.34497799 38.265625 39.90625 C39 42 39 42 39 45 C39.66 45 40.32 45 41 45 C42.31626692 48.61973402 43 51.09567131 43 55 C44.32 55 45.64 55 47 55 C47.185625 53.453125 47.185625 53.453125 47.375 51.875 C47.93889814 48.37883154 48.78682059 45.31602373 50 42 C50.66 42 51.32 42 52 42 C52.19916016 41.06027344 52.19916016 41.06027344 52.40234375 40.1015625 C52.57894531 39.28429687 52.75554688 38.46703125 52.9375 37.625 C53.11152344 36.81289062 53.28554688 36.00078125 53.46484375 35.1640625 C54 33 54 33 55 31 C55.66 31 56.32 31 57 31 C57.66 28.03 58.32 25.06 59 22 C59.66 22 60.32 22 61 22 C61.13277344 21.38511719 61.26554688 20.77023438 61.40234375 20.13671875 C61.57894531 19.32847656 61.75554688 18.52023438 61.9375 17.6875 C62.11152344 16.88699219 62.28554688 16.08648437 62.46484375 15.26171875 C63 13 63 13 64 10 C64.66 10 65.32 10 66 10 C66.13277344 9.36191406 66.26554688 8.72382813 66.40234375 8.06640625 C66.57894531 7.24011719 66.75554687 6.41382813 66.9375 5.5625 C67.11152344 4.73878906 67.28554688 3.91507813 67.46484375 3.06640625 C68 1 68 1 69 0 C70.56172745 -0.08685603 72.12729344 -0.10702219 73.69140625 -0.09765625 C74.63564453 -0.09443359 75.57988281 -0.09121094 76.55273438 -0.08789062 C77.54595703 -0.07951172 78.53917969 -0.07113281 79.5625 -0.0625 C80.55958984 -0.05798828 81.55667969 -0.05347656 82.58398438 -0.04882812 C85.05604849 -0.03700007 87.52799518 -0.02051849 90 0 C89.79503906 0.67546875 89.59007812 1.3509375 89.37890625 2.046875 C89.10949219 2.93890625 88.84007812 3.8309375 88.5625 4.75 C88.29566406 5.63171875 88.02882813 6.5134375 87.75390625 7.421875 C87.11531506 9.60565835 86.53224167 11.78835498 86 14 C85.34 14 84.68 14 84 14 C83.34 16.64 82.68 19.28 82 22 C81.34 22 80.68 22 80 22 C79.814375 23.3303125 79.814375 23.3303125 79.625 24.6875 C79.05587264 27.70387502 78.23385564 30.20326054 77 33 C76.34 33 75.68 33 75 33 C74.34 35.97 73.68 38.94 73 42 C72.34 42 71.68 42 71 42 C70.01 45.63 69.02 49.26 68 53 C67.34 53 66.68 53 66 53 C65.34 55.97 64.68 58.94 64 62 C63.34 62 62.68 62 62 62 C61.814375 63.051875 61.814375 63.051875 61.625 64.125 C60.96161655 67.17656387 60.02788045 70.05340938 59 73 C58.34 73 57.68 73 57 73 C56.896875 73.845625 56.79375 74.69125 56.6875 75.5625 C56.07601975 78.61990124 55.18244029 81.15966125 53.8984375 83.98828125 C52.80101198 86.44556013 51.80708686 88.93692523 50.8125 91.4375 C50.46832031 92.30246094 50.12414062 93.16742188 49.76953125 94.05859375 C49.51558594 94.69925781 49.26164063 95.33992188 49 96 C48.34 96 47.68 96 47 96 C46.855625 96.763125 46.71125 97.52625 46.5625 98.3125 C46 101 46 101 45 104 C44.34 104 43.68 104 43 104 C42.34 106.97 41.68 109.94 41 113 C34.07 113 27.14 113 20 113 C20.66 110.03 21.32 107.06 22 104 C22.66 104 23.32 104 24 104 C24.99 100.37 25.98 96.74 27 93 C27.66 93 28.32 93 29 93 C29.13277344 92.38511719 29.26554688 91.77023438 29.40234375 91.13671875 C29.66724609 89.92435547 29.66724609 89.92435547 29.9375 88.6875 C30.19853516 87.48673828 30.19853516 87.48673828 30.46484375 86.26171875 C31 84 31 84 32 81 C32.66 81 33.32 81 34 81 C32.05620069 75.00804764 32.05620069 75.00804764 29.8125 69.125 C29 67 29 67 29 64 C28.34 64 27.68 64 27 64 C26.01 60.37 25.02 56.74 24 53 C23.34 53 22.68 53 22 53 C21.34 50.03 20.68 47.06 20 44 C19.34 44 18.68 44 18 44 C17.34 41.03 16.68 38.06 16 35 C15.34 35 14.68 35 14 35 C13.49384702 33.73160474 12.99530901 32.46016898 12.5 31.1875 C12.2215625 30.47980469 11.943125 29.77210938 11.65625 29.04296875 C11 27 11 27 11 24 C10.34 24 9.68 24 9 24 C8.49440092 22.56445975 7.9957251 21.1264798 7.5 19.6875 C7.08234375 18.48673828 7.08234375 18.48673828 6.65625 17.26171875 C6 15 6 15 6 12 C5.34 12 4.68 12 4 12 C2.68 8.04 1.36 4.08 0 0 Z " fill="#241F2C" transform="translate(701,153)"/>
<path d="M0 0 C6.93 0 13.86 0 21 0 C21 31.35 21 62.7 21 95 C37.83 95 54.66 95 72 95 C72 101.93 72 108.86 72 116 C48.24 116 24.48 116 0 116 C0 77.72 0 39.44 0 0 Z " fill="#292330" transform="translate(312,120)"/>
<path d="M0 0 C0 0.66 0 1.32 0 2 C2.475 2.495 2.475 2.495 5 3 C5 8.61 5 14.22 5 20 C2.69 19.34 0.38 18.68 -2 18 C-2 17.34 -2 16.68 -2 16 C-10.47121055 14.16484414 -19.68330282 12.21347587 -28.125 15.125 C-31.2796628 16.74458876 -31.2796628 16.74458876 -31.9375 20.0625 C-31.97251261 21.70809275 -32 23.35403482 -32 25 C-29.03 25.99 -26.06 26.98 -23 28 C-23 28.66 -23 29.32 -23 30 C-21.96875 30.12375 -20.9375 30.2475 -19.875 30.375 C-16.37883154 30.93889814 -13.31602373 31.78682059 -10 33 C-10 33.66 -10 34.32 -10 35 C-9.236875 35.144375 -8.47375 35.28875 -7.6875 35.4375 C-5 36 -5 36 -2 37 C-2 37.66 -2 38.32 -2 39 C-1.0925 39.2475 -0.185 39.495 0.75 39.75 C4.16851477 41.06481337 5.74220534 42.15685117 8 45 C8.75 47.25 8.75 47.25 9 49 C9.66 49 10.32 49 11 49 C12.50156874 52.00313748 12.09281204 54.79067522 12.0625 58.125 C12.05347656 59.40632813 12.04445313 60.68765625 12.03515625 62.0078125 C12.02355469 62.99523437 12.01195312 63.98265625 12 65 C11.34 65 10.68 65 10 65 C9.9071875 66.051875 9.9071875 66.051875 9.8125 67.125 C8.69219429 71.08915867 6.83933474 73.02216113 4 76 C3.34 76 2.68 76 2 76 C2 76.66 2 77.32 2 78 C-1.08809695 79.76462683 -2.23312136 80 -6 80 C-6 80.66 -6 81.32 -6 82 C-11.28771093 83.56531233 -16.72057217 83.18434903 -22.1875 83.1875 C-23.28642578 83.19974609 -24.38535156 83.21199219 -25.51757812 83.22460938 C-32.00630223 83.23621711 -37.72753695 82.67574778 -44 81 C-44 80.34 -44 79.68 -44 79 C-45.98 78.67 -47.96 78.34 -50 78 C-50 77.34 -50 76.68 -50 76 C-51.32 75.67 -52.64 75.34 -54 75 C-54 69.39 -54 63.78 -54 58 C-51.69 58.66 -49.38 59.32 -47 60 C-47 60.66 -47 61.32 -47 62 C-42.71 62.99 -38.42 63.98 -34 65 C-34 65.66 -34 66.32 -34 67 C-28.06 67 -22.12 67 -16 67 C-16 66.34 -16 65.68 -16 65 C-15.360625 64.7525 -14.72125 64.505 -14.0625 64.25 C-11.8938135 63.18074773 -11.8938135 63.18074773 -11.0625 61.1875 C-10.97132034 57.99621184 -12.11524376 56.54204519 -14 54 C-16.68532831 52.55370957 -16.68532831 52.55370957 -19.6875 51.6875 C-20.68136719 51.36136719 -21.67523437 51.03523438 -22.69921875 50.69921875 C-23.45847656 50.46847656 -24.21773437 50.23773438 -25 50 C-25 49.34 -25 48.68 -25 48 C-26.04800781 47.80083984 -26.04800781 47.80083984 -27.1171875 47.59765625 C-28.02726563 47.42105469 -28.93734375 47.24445313 -29.875 47.0625 C-30.77992188 46.88847656 -31.68484375 46.71445313 -32.6171875 46.53515625 C-35 46 -35 46 -37 45 C-37 44.34 -37 43.68 -37 43 C-39.31 42.34 -41.62 41.68 -44 41 C-44 40.34 -44 39.68 -44 39 C-44.5775 38.7525 -45.155 38.505 -45.75 38.25 C-50.24821095 35.75099391 -52.41205422 32.83287845 -54 28 C-54.5673403 21.80097285 -54.56364639 15.76820437 -52 10 C-51.34 10 -50.68 10 -50 10 C-49.731875 9.401875 -49.46375 8.80375 -49.1875 8.1875 C-48.00082594 6.00152146 -46.90400887 4.58667406 -45 3 C-44.34 3 -43.68 3 -43 3 C-43 2.34 -43 1.68 -43 1 C-27.86556051 -3.84180257 -15.27353627 -3.46282604 0 0 Z " fill="#25202C" transform="translate(850,154)"/>
<path d="M0 0 C0 0.66 0 1.32 0 2 C1.32 2.33 2.64 2.66 4 3 C4 9.6 4 16.2 4 23 C2.515 22.505 2.515 22.505 1 22 C1 21.34 1 20.68 1 20 C0.113125 19.71125 -0.77375 19.4225 -1.6875 19.125 C-5 18 -5 18 -7.09375 16.96875 C-11.29515716 15.56828095 -15.4099762 15.53258474 -19.8125 15.375 C-20.69615234 15.33632812 -21.57980469 15.29765625 -22.49023438 15.2578125 C-24.65982972 15.16399216 -26.82988547 15.08092674 -29 15 C-29 15.66 -29 16.32 -29 17 C-29.63808594 17.18175781 -30.27617188 17.36351562 -30.93359375 17.55078125 C-31.75988281 17.80214844 -32.58617187 18.05351562 -33.4375 18.3125 C-34.26121094 18.55613281 -35.08492187 18.79976562 -35.93359375 19.05078125 C-36.61550781 19.36402344 -37.29742188 19.67726562 -38 20 C-38.33 20.99 -38.66 21.98 -39 23 C-39.66 23 -40.32 23 -41 23 C-41.99 26.3 -42.98 29.6 -44 33 C-44.66 33 -45.32 33 -46 33 C-46 37.29 -46 41.58 -46 46 C-45.34 46 -44.68 46 -44 46 C-43.89042969 46.63808594 -43.78085937 47.27617187 -43.66796875 47.93359375 C-43.43013672 49.17302734 -43.43013672 49.17302734 -43.1875 50.4375 C-43.03667969 51.26121094 -42.88585937 52.08492187 -42.73046875 52.93359375 C-42.48941406 53.61550781 -42.24835937 54.29742187 -42 55 C-40.515 55.495 -40.515 55.495 -39 56 C-39 56.66 -39 57.32 -39 58 C-38.34 58 -37.68 58 -37 58 C-36.62875 58.61875 -36.2575 59.2375 -35.875 59.875 C-32.53235087 63.66333569 -28.02695047 63.86277345 -23.23046875 64.1875 C-15.9785599 64.33957148 -9.10196583 63.41031946 -2 62 C-2 61.34 -2 60.68 -2 60 C0.31 59.34 2.62 58.68 5 58 C4.67 64.6 4.34 71.2 4 78 C-6.04464286 81.21428571 -6.04464286 81.21428571 -11 81 C-11 81.66 -11 82.32 -11 83 C-14.39581516 83.0291544 -17.79159786 83.04685068 -21.1875 83.0625 C-22.14720703 83.07087891 -23.10691406 83.07925781 -24.09570312 83.08789062 C-25.02705078 83.09111328 -25.95839844 83.09433594 -26.91796875 83.09765625 C-27.77156982 83.10289307 -28.6251709 83.10812988 -29.50463867 83.11352539 C-32.09246747 82.99579323 -34.47661953 82.57107044 -37 82 C-37 81.34 -37 80.68 -37 80 C-40.465 79.505 -40.465 79.505 -44 79 C-44 78.34 -44 77.68 -44 77 C-44.9075 76.71125 -45.815 76.4225 -46.75 76.125 C-55.22513924 73.19129795 -60.02041095 66.94224369 -64 59 C-64 58.01 -64 57.02 -64 56 C-64.66 56 -65.32 56 -66 56 C-69.04070694 46.68783499 -68.83955608 36.56569159 -67 27 C-66.34 27 -65.68 27 -65 27 C-64.87625 26.0925 -64.7525 25.185 -64.625 24.25 C-64.07890323 21.41029677 -63.42736197 19.47409409 -62 17 C-61.34 17 -60.68 17 -60 17 C-59.79375 16.278125 -59.5875 15.55625 -59.375 14.8125 C-57.52471012 11.02781616 -55.39759562 9.47741347 -52 7 C-51.34 7 -50.68 7 -50 7 C-50 6.34 -50 5.68 -50 5 C-44.375 2 -44.375 2 -41 2 C-41 1.34 -41 0.68 -41 0 C-26.26031497 -3.30168945 -14.70952503 -3.06600522 0 0 Z " fill="#251F2C" transform="translate(557,154)"/>
<path d="M0 0 C6.27 0 12.54 0 19 0 C19 37.95 19 75.9 19 115 C12.73 115 6.46 115 0 115 C0 77.05 0 39.1 0 0 Z " fill="#26202E" transform="translate(673,120)"/>
<path d="M0 0 C1.1034375 -0.00515625 2.206875 -0.0103125 3.34375 -0.015625 C6.46392334 0.24696385 8.68304814 0.92561218 11.5 2.25 C11.5 2.91 11.5 3.57 11.5 4.25 C12.098125 4.4975 12.69625 4.745 13.3125 5 C15.83586869 6.44192497 17.00030076 7.77549626 18.5 10.25 C18.5 11.24 18.5 12.23 18.5 13.25 C19.16 13.25 19.82 13.25 20.5 13.25 C21.29091257 16.04607623 21.62818608 18.53475241 21.6328125 21.4375 C21.63474609 22.60925781 21.63474609 22.60925781 21.63671875 23.8046875 C21.63285156 24.61164063 21.62898438 25.41859375 21.625 26.25 C21.63080078 27.46042969 21.63080078 27.46042969 21.63671875 28.6953125 C21.63542969 29.47648437 21.63414062 30.25765625 21.6328125 31.0625 C21.63168457 31.77019531 21.63055664 32.47789062 21.62939453 33.20703125 C21.49511502 35.32712733 21.07716498 37.20957563 20.5 39.25 C19.84 39.25 19.18 39.25 18.5 39.25 C18.479375 39.95125 18.45875 40.6525 18.4375 41.375 C17.04474397 45.64611848 14.23455568 47.86656406 10.5 50.25 C7.0625 51.125 7.0625 51.125 4.5 51.25 C4.5 51.91 4.5 52.57 4.5 53.25 C1.2 53.25 -2.1 53.25 -5.5 53.25 C-5.5 52.59 -5.5 51.93 -5.5 51.25 C-6.8921875 51.064375 -6.8921875 51.064375 -8.3125 50.875 C-11.5 50.25 -11.5 50.25 -14.5 48.25 C-14.5 47.59 -14.5 46.93 -14.5 46.25 C-15.49 45.92 -16.48 45.59 -17.5 45.25 C-17.83 43.6 -18.16 41.95 -18.5 40.25 C-19.16 40.25 -19.82 40.25 -20.5 40.25 C-22.41193631 31.91942036 -23.19736727 24.73683633 -21.5 16.25 C-20.84 16.25 -20.18 16.25 -19.5 16.25 C-19.4690625 15.0125 -19.4690625 15.0125 -19.4375 13.75 C-18.12242464 8.84038532 -15.30373115 5.57452093 -11.5 2.25 C-7.62763638 0.22285663 -4.33822156 -0.02027206 0 0 Z " fill="#F6F5F6" transform="translate(434.5,167.75)"/>
<path d="M0 0 C0 0.66 0 1.32 0 2 C0.74894531 2.09023437 1.49789062 2.18046875 2.26953125 2.2734375 C6.96958438 3.52409541 9.2928834 7.13468403 12 11 C15.53884298 19.00086238 14.95379276 28.87706991 12 37 C11.34 37 10.68 37 10 37 C9.7525 37.94875 9.505 38.8975 9.25 39.875 C8 43 8 43 5.9375 44.25 C5.298125 44.4975 4.65875 44.745 4 45 C3.505 45.99 3.505 45.99 3 47 C-4.47010075 49.80128778 -11.83796789 50.10721406 -19.26953125 46.9921875 C-21.91608058 45.47475289 -23.4187306 43.56956278 -25 41 C-25 40.34 -25 39.68 -25 39 C-25.66 39 -26.32 39 -27 39 C-27.33 37.68 -27.66 36.36 -28 35 C-28.66 35 -29.32 35 -30 35 C-31.15835838 31.3226718 -31.13312878 27.83678577 -31.125 24 C-31.12886719 22.1746875 -31.12886719 22.1746875 -31.1328125 20.3125 C-31.02616155 17.65249989 -30.79307874 15.51771029 -30 13 C-29.34 13 -28.68 13 -28 13 C-27.79375 12.113125 -27.5875 11.22625 -27.375 10.3125 C-25.28715652 5.28269525 -21.71837564 3.1589045 -17.3125 0.1875 C-11.75653674 -1.80426041 -5.61049932 -1.87016644 0 0 Z " fill="#F6F6F7" transform="translate(625,170)"/>
<path d="M0 0 C3.19971581 2.07295358 4.24546085 4.65607531 5.73046875 8.12109375 C5.73046875 9.11109375 5.73046875 10.10109375 5.73046875 11.12109375 C6.39046875 11.12109375 7.05046875 11.12109375 7.73046875 11.12109375 C7.73046875 13.76109375 7.73046875 16.40109375 7.73046875 19.12109375 C-5.13953125 19.12109375 -18.00953125 19.12109375 -31.26953125 19.12109375 C-30.13809782 10.06962629 -30.13809782 10.06962629 -25.51953125 5.24609375 C-24.6584375 4.32054687 -23.79734375 3.395 -22.91015625 2.44140625 C-16.33911281 -3.33255796 -7.85788044 -3.27803795 0 0 Z " fill="#F1F1F1" transform="translate(923.26953125,168.87890625)"/>
<path d="M0 0 C0 11.22 0 22.44 0 34 C-10 32 -10 32 -12.5 30.3125 C-17.06868596 23.26910914 -16.66166262 15.10230827 -15.375 7.125 C-12.11562265 -0.28267581 -7.73516452 0 0 0 Z " fill="#FCFCFE" transform="translate(178,172)"/>
<path d="M0 0 C6.27 0 12.54 0 19 0 C19 37.95 19 75.9 19 115 C12.73 115 6.46 115 0 115 C0 77.05 0 39.1 0 0 Z M2 1 C2 37.96 2 74.92 2 113 C7.28 113 12.56 113 18 113 C18 76.04 18 39.08 18 1 C12.72 1 7.44 1 2 1 Z " fill="#050308" transform="translate(673,120)"/>
<path d="M0 0 C0.98291016 0.00322266 1.96582031 0.00644531 2.97851562 0.00976562 C4.51475586 0.02233398 4.51475586 0.02233398 6.08203125 0.03515625 C7.63567383 0.04192383 7.63567383 0.04192383 9.22070312 0.04882812 C11.77870391 0.06061615 14.33658858 0.0770711 16.89453125 0.09765625 C16.89453125 0.42765625 16.89453125 0.75765625 16.89453125 1.09765625 C16.29503662 1.10176514 15.69554199 1.10587402 15.07788086 1.11010742 C12.32830225 1.14326044 9.58087648 1.21392372 6.83203125 1.28515625 C5.88908203 1.29095703 4.94613281 1.29675781 3.97460938 1.30273438 C-2.64104851 1.51019403 -6.18412916 2.59032352 -11.10546875 7.09765625 C-12.01570594 9.82836782 -12.2317921 11.4222886 -12.23486328 14.23022461 C-12.23801544 15.05795883 -12.2411676 15.88569305 -12.24441528 16.73851013 C-12.24239105 17.62917679 -12.24036682 18.51984344 -12.23828125 19.4375 C-12.23923798 20.35600235 -12.2401947 21.2745047 -12.24118042 22.22084045 C-12.24186092 24.16342233 -12.2400157 26.10600648 -12.23583984 28.04858398 C-12.23049588 31.02007164 -12.2357861 33.99140772 -12.2421875 36.96289062 C-12.24152658 38.85026075 -12.24024512 40.73763078 -12.23828125 42.625 C-12.24030548 43.51364243 -12.24232971 44.40228485 -12.24441528 45.31785583 C-12.24126312 46.14874222 -12.23811096 46.9796286 -12.23486328 47.83569336 C-12.23406769 48.56388779 -12.23327209 49.29208221 -12.23245239 50.04234314 C-12.10109774 52.16840388 -11.6858585 54.05221357 -11.10546875 56.09765625 C-14.24574387 53.52834024 -15.0495078 50.96427907 -16.10546875 47.09765625 C-16.31236877 44.48028403 -16.43293983 41.97128713 -16.44140625 39.35546875 C-16.44806305 38.6282663 -16.45471985 37.90106384 -16.46157837 37.15182495 C-16.47165552 35.62061066 -16.47639693 34.08935289 -16.47607422 32.55810547 C-16.48044382 30.23590531 -16.5168016 27.91561425 -16.5546875 25.59375 C-16.62383028 16.4633998 -16.18195789 9.91532523 -10.04296875 2.66015625 C-6.80190327 0.04639376 -4.00954486 -0.02317656 0 0 Z " fill="#9D97E8" transform="translate(196.10546875,158.90234375)"/>
<path d="M0 0 C0.74056641 0.00451172 1.48113281 0.00902344 2.24414062 0.01367188 C4.05862899 0.02537825 5.87307534 0.04331102 7.6875 0.0625 C7.6875 0.3925 7.6875 0.7225 7.6875 1.0625 C6.40875 1.17207031 5.13 1.28164063 3.8125 1.39453125 C2.10411224 1.55410593 0.3957818 1.71429497 -1.3125 1.875 C-2.57126953 1.98038086 -2.57126953 1.98038086 -3.85546875 2.08789062 C-11.8485661 2.86241556 -18.15942601 5.40648441 -25.3125 9.0625 C-26.97160004 9.74778045 -28.63582564 10.42141863 -30.3125 11.0625 C-30.3125 11.7225 -30.3125 12.3825 -30.3125 13.0625 C-31.9625 13.7225 -33.6125 14.3825 -35.3125 15.0625 C-35.3125 14.4025 -35.3125 13.7425 -35.3125 13.0625 C-25.21234428 4.19134553 -13.27579189 -0.15423172 0 0 Z " fill="#9993E7" transform="translate(154.3125,59.9375)"/>
<path d="M0 0 C0.66 0 1.32 0 2 0 C1.68160156 0.94101563 1.36320313 1.88203125 1.03515625 2.8515625 C-0.33511966 7.64450995 -0.41544882 12.41829921 -0.5625 17.375 C-0.62214895 19.17462162 -0.68572998 20.97411875 -0.75390625 22.7734375 C-0.77783447 23.56153809 -0.8017627 24.34963867 -0.82641602 25.16162109 C-1 27 -1 27 -2 28 C-2.04080783 29.99958364 -2.04254356 32.00045254 -2 34 C-2.33 34 -2.66 34 -3 34 C-4.25237852 29.15945762 -4.14767328 24.39916861 -4.125 19.4375 C-4.12886719 18.58736328 -4.13273438 17.73722656 -4.13671875 16.86132812 C-4.13542969 16.03955078 -4.13414062 15.21777344 -4.1328125 14.37109375 C-4.13168457 13.62786865 -4.13055664 12.88464355 -4.12939453 12.11889648 C-3.99800151 9.96727379 -3.58919579 8.06920646 -3 6 C-2.34 6 -1.68 6 -1 6 C-0.67 4.02 -0.34 2.04 0 0 Z " fill="#3F3C43" transform="translate(876,174)"/>
<path d="M0 0 C1.19625 0.33 2.3925 0.66 3.625 1 C13.38480736 3.15176855 23.37595622 2.4836242 33 0 C32.67 0.66 32.34 1.32 32 2 C31.01 2 30.02 2 29 2 C29 2.66 29 3.32 29 4 C26.23434618 4.92188461 24.61716298 5.11785222 21.76953125 5.09765625 C20.96708984 5.09443359 20.16464844 5.09121094 19.33789062 5.08789062 C18.08782227 5.07532227 18.08782227 5.07532227 16.8125 5.0625 C15.96751953 5.05798828 15.12253906 5.05347656 14.25195312 5.04882812 C12.16793845 5.03705403 10.08396023 5.0191189 8 5 C8 4.34 8 3.68 8 3 C6.865625 2.87625 5.73125 2.7525 4.5625 2.625 C3.386875 2.41875 2.21125 2.2125 1 2 C0.67 1.34 0.34 0.68 0 0 Z " fill="#2F2E32" transform="translate(594,232)"/>
<path d="M0 0 C0.86109375 -0.00128906 1.7221875 -0.00257812 2.609375 -0.00390625 C3.95515625 0.00189453 3.95515625 0.00189453 5.328125 0.0078125 C6.65070313 0.00201172 6.65070313 0.00201172 8 -0.00390625 C12.96692585 0.00348501 17.68226193 0.29008197 22.578125 1.1328125 C22.578125 1.7928125 22.578125 2.4528125 22.578125 3.1328125 C21.95244629 3.09728271 21.32676758 3.06175293 20.68212891 3.02514648 C17.85607705 2.86785183 15.02964326 2.71898002 12.203125 2.5703125 C11.21828125 2.51423828 10.2334375 2.45816406 9.21875 2.40039062 C8.27773437 2.35205078 7.33671875 2.30371094 6.3671875 2.25390625 C5.49787598 2.2067749 4.62856445 2.15964355 3.73291016 2.11108398 C1.52669869 1.97595397 1.52669869 1.97595397 -0.421875 3.1328125 C-3.0942371 3.26696722 -5.74437988 3.17599791 -8.421875 3.1328125 C-6.666012 -0.37891349 -3.52440803 0.00511207 0 0 Z " fill="#9C96E8" transform="translate(146.421875,21.8671875)"/>
<path d="M0 0 C5.96974787 5.96974787 6.14792284 14.73249159 6.1875 22.6875 C6.20167969 23.99074219 6.21585938 25.29398438 6.23046875 26.63671875 C6 30 6 30 4 33 C3.96261719 31.92363281 3.92523438 30.84726563 3.88671875 29.73828125 C3.53345137 21.40729831 2.76501683 13.64288658 0.62109375 5.5390625 C0 3 0 3 0 0 Z " fill="#9C96E7" transform="translate(199,88)"/>
<path d="M0 0 C7.26 0 14.52 0 22 0 C25 9 25 9 24 12 C22.68 9.03 21.36 6.06 20 3 C13.73 3 7.46 3 1 3 C0.67 2.01 0.34 1.02 0 0 Z " fill="#110E16" transform="translate(701,153)"/>
<path d="M0 0 C6.875 0.875 6.875 0.875 8 2 C8.08669432 3.4887186 8.10703494 4.981445 8.09765625 6.47265625 C8.09443359 7.37177734 8.09121094 8.27089844 8.08789062 9.19726562 C8.07951172 10.14279297 8.07113281 11.08832031 8.0625 12.0625 C8.05798828 13.01189453 8.05347656 13.96128906 8.04882812 14.93945312 C8.0370011 17.29303065 8.02052025 19.64648477 8 22 C7.01 21.67 6.02 21.34 5 21 C5 20.34 5 19.68 5 19 C3.68 18.67 2.36 18.34 1 18 C1.33 17.34 1.66 16.68 2 16 C3.32 16.33 4.64 16.66 6 17 C6 12.05 6 7.1 6 2 C3.03 1.505 3.03 1.505 0 1 C0 0.67 0 0.34 0 0 Z " fill="#0B080E" transform="translate(553,155)"/>
<path d="M0 0 C0.33 0 0.66 0 1 0 C1 8.58 1 17.16 1 26 C-3 27 -3 27 -5 26 C-5 25.34 -5 24.68 -5 24 C-4.01 24 -3.02 24 -2 24 C-1.34 16.08 -0.68 8.16 0 0 Z " fill="#9B96E7" transform="translate(269,207)"/>
<path d="M0 0 C0.33 1.32 0.66 2.64 1 4 C0.34 4 -0.32 4 -1 4 C-1 4.66 -1 5.32 -1 6 C0.20398438 5.97679687 1.40796875 5.95359375 2.6484375 5.9296875 C4.22395215 5.91093137 5.79947348 5.89273101 7.375 5.875 C8.1690625 5.85824219 8.963125 5.84148437 9.78125 5.82421875 C11.85492015 5.80664527 13.92883241 5.89664832 16 6 C16.66 6.66 17.32 7.32 18 8 C11.07 8 4.14 8 -3 8 C-2.67 6.35 -2.34 4.7 -2 3 C-1.34 3 -0.68 3 0 3 C0 2.01 0 1.02 0 0 Z " fill="#3F3D43" transform="translate(724,258)"/>
<path d="M0 0 C7.82685867 3.69649866 16.5733436 10.04118039 20.4375 17.9375 C20.623125 18.618125 20.80875 19.29875 21 20 C17.61637133 17.48644728 15.08136443 14.86843678 12.45703125 11.5859375 C8.91025658 7.72537312 4.3387106 4.89247373 0 2 C0 1.34 0 0.68 0 0 Z " fill="#9A95E8" transform="translate(201,37)"/>
<path d="M0 0 C6.6 0 13.2 0 20 0 C19.34 2.31 18.68 4.62 18 7 C17.34 6.67 16.68 6.34 16 6 C16.66 4.68 17.32 3.36 18 2 C12.06 2 6.12 2 0 2 C0 1.34 0 0.68 0 0 Z " fill="#110E18" transform="translate(771,153)"/>
<path d="M0 0 C3.30955271 4.24525352 5.73139441 8.82054907 8.25 13.5625 C8.72179687 14.42552734 9.19359375 15.28855469 9.6796875 16.17773438 C10.12054688 17.00724609 10.56140625 17.83675781 11.015625 18.69140625 C11.42071289 19.44623291 11.82580078 20.20105957 12.24316406 20.97875977 C13 23 13 23 12 26 C10.3700395 23.10693236 8.74692832 20.21007717 7.125 17.3125 C6.43470703 16.08756836 6.43470703 16.08756836 5.73046875 14.83789062 C0 4.58118207 0 4.58118207 0 0 Z " fill="#9A95E7" transform="translate(82,157)"/>
<path d="M0 0 C0.98291016 0.00322266 1.96582031 0.00644531 2.97851562 0.00976562 C4.51475586 0.02233398 4.51475586 0.02233398 6.08203125 0.03515625 C7.63567383 0.04192383 7.63567383 0.04192383 9.22070312 0.04882812 C11.77870391 0.06061615 14.33658858 0.0770711 16.89453125 0.09765625 C16.89453125 0.42765625 16.89453125 0.75765625 16.89453125 1.09765625 C16.29503662 1.10176514 15.69554199 1.10587402 15.07788086 1.11010742 C12.32830225 1.14326044 9.58087648 1.21392372 6.83203125 1.28515625 C5.88908203 1.29095703 4.94613281 1.29675781 3.97460938 1.30273438 C-2.65753563 1.51071105 -6.14831179 2.62022416 -11.10546875 7.09765625 C-12.58319032 9.73551295 -12.58319032 9.73551295 -13.10546875 12.09765625 C-13.43546875 11.10765625 -13.76546875 10.11765625 -14.10546875 9.09765625 C-10.74044495 2.36760864 -7.53997025 -0.04358364 0 0 Z " fill="#938CE5" transform="translate(196.10546875,158.90234375)"/>
<path d="M0 0 C0.99 0.33 1.98 0.66 3 1 C-2 6 -2 6 -4.5 8.375 C-7.38192537 11.40102164 -9.63700982 14.55678573 -12 18 C-12.65576172 16.19995117 -12.65576172 16.19995117 -13 14 C-12.02783203 12.3684082 -12.02783203 12.3684082 -10.5078125 10.80078125 C-9.96769531 10.23166016 -9.42757812 9.66253906 -8.87109375 9.07617188 C-8.29488281 8.49416016 -7.71867187 7.91214844 -7.125 7.3125 C-6.55652344 6.71888672 -5.98804687 6.12527344 -5.40234375 5.51367188 C-3.62007682 3.65732022 -1.81972973 1.81972973 0 0 Z " fill="#9C97E8" transform="translate(95,44)"/>
<path d="M0 0 C5 2 5 2 6 4 C4.68 3.67 3.36 3.34 2 3 C2 7.29 2 11.58 2 16 C1.34 16 0.68 16 0 16 C0 10.72 0 5.44 0 0 Z " fill="#050309" transform="translate(796,212)"/>
<path d="M0 0 C0 5.61 0 11.22 0 17 C-2 15 -2 15 -2.1953125 12.1796875 C-2.16050781 10.54386719 -2.16050781 10.54386719 -2.125 8.875 C-2.10695313 7.77929688 -2.08890625 6.68359375 -2.0703125 5.5546875 C-2.03550781 4.29011719 -2.03550781 4.29011719 -2 3 C-3.32 2.67 -4.64 2.34 -6 2 C-2.25 0 -2.25 0 0 0 Z " fill="#49464D" transform="translate(947,212)"/>
<path d="M0 0 C6.75424737 1.17931303 12.32935115 3.05079812 18 7 C18.33 7.66 18.66 8.32 19 9 C14.81622995 8.47702874 11.61473812 6.9080245 7.93359375 4.98046875 C5.86984716 3.89213104 5.86984716 3.89213104 3.0625 2.875 C1 2 1 2 0 0 Z " fill="#9C96E8" transform="translate(180,27)"/>
<path d="M0 0 C5.35000149 4.90283719 9.16648596 12.03264666 11 19 C7.4882036 15.84559881 5.44790407 12.53598933 3.25 8.375 C2.63640625 7.22773438 2.0228125 6.08046875 1.390625 4.8984375 C0 2 0 2 0 0 Z " fill="#9B95E7" transform="translate(96,184)"/>
<path d="M0 0 C-1.03125 0.433125 -2.0625 0.86625 -3.125 1.3125 C-5.58284532 2.35945237 -7.92606398 3.47176844 -10.3125 4.6875 C-13 6 -13 6 -15 6 C-14.67 5.01 -14.34 4.02 -14 3 C-13.01 3 -12.02 3 -11 3 C-11 2.34 -11 1.68 -11 1 C-3.57142857 -1.42857143 -3.57142857 -1.42857143 0 0 Z " fill="#9F9AE8" transform="translate(128,28)"/>
<path d="M0 0 C4.47735969 5.25603094 4.11174966 10.40677012 4 17 C2.48300584 14.19547298 1.54691437 11.6142698 0.875 8.5 C0.70742187 7.7471875 0.53984375 6.994375 0.3671875 6.21875 C0 4 0 4 0 0 Z " fill="#9A94E7" transform="translate(235,82)"/>
<path d="M0 0 C0.66 0 1.32 0 2 0 C3.76171875 2.3359375 3.76171875 2.3359375 5.6875 5.375 C6.65236328 6.87160156 6.65236328 6.87160156 7.63671875 8.3984375 C8.31154297 9.68621094 8.31154297 9.68621094 9 11 C8.67 11.66 8.34 12.32 8 13 C0 3.28571429 0 3.28571429 0 0 Z " fill="#9C97E7" transform="translate(136,249)"/>
<path d="M0 0 C0.33 0 0.66 0 1 0 C1.25 7.625 1.25 7.625 -1 11 C-1.66 7.7 -2.32 4.4 -3 1 C-2.01 1.33 -1.02 1.66 0 2 C0 1.34 0 0.68 0 0 Z " fill="#3A373F" transform="translate(492,199)"/>
<path d="M0 0 C0.66 1.32 1.32 2.64 2 4 C2.66 4 3.32 4 4 4 C5.48320272 7.83887763 6.22419163 10.06204091 5 14 C4.15973604 12.23244474 3.32801278 10.46082737 2.5 8.6875 C2.0359375 7.70136719 1.571875 6.71523437 1.09375 5.69921875 C0 3 0 3 0 0 Z " fill="#9D98E8" transform="translate(229,67)"/>
<path d="M0 0 C1 3 1 3 0.00390625 5.48046875 C-0.47175781 6.37378906 -0.94742188 7.26710938 -1.4375 8.1875 C-1.91058594 9.08855469 -2.38367188 9.98960938 -2.87109375 10.91796875 C-3.24363281 11.60503906 -3.61617188 12.29210937 -4 13 C-4.86443295 10.5653629 -5.12994709 9.36863937 -4.2578125 6.89453125 C-3.88398437 6.20746094 -3.51015625 5.52039063 -3.125 4.8125 C-2.57199219 3.77029297 -2.57199219 3.77029297 -2.0078125 2.70703125 C-1 1 -1 1 0 0 Z " fill="#9C96E7" transform="translate(79,64)"/>
<path d="M0 0 C3.65882521 3.3621637 6.14420341 6.36050852 8 11 C7.67 11.66 7.34 12.32 7 13 C6.01364163 11.58833114 5.03618745 10.17043816 4.0625 8.75 C3.51722656 7.96109375 2.97195312 7.1721875 2.41015625 6.359375 C1.10377559 4.17363007 0.45019489 2.4846199 0 0 Z " fill="#9A95E7" transform="translate(115,216)"/>
<path d="M0 0 C1 3 1 3 0.328125 4.97265625 C-0.02765625 5.66230469 -0.3834375 6.35195312 -0.75 7.0625 C-1.26820313 8.10083984 -1.26820313 8.10083984 -1.796875 9.16015625 C-3 11 -3 11 -6 13 C-6.99 12.67 -7.98 12.34 -9 12 C-8.071875 11.319375 -7.14375 10.63875 -6.1875 9.9375 C-2.68613361 7.05694325 -1.49368977 4.23212101 0 0 Z " fill="#9792E7" transform="translate(231,142)"/>
<path d="M0 0 C1.5 1.375 1.5 1.375 3 3 C3 3.66 3 4.32 3 5 C3.66 5 4.32 5 5 5 C6.06775224 6.96466413 7.06553465 8.96855359 8 11 C7.67 11.66 7.34 12.32 7 13 C6.01364163 11.58833114 5.03618745 10.17043816 4.0625 8.75 C3.51722656 7.96109375 2.97195312 7.1721875 2.41015625 6.359375 C1.10377559 4.17363007 0.45019489 2.4846199 0 0 Z " fill="#9A94E7" transform="translate(124,230)"/>
<path d="M0 0 C0.66 1.32 1.32 2.64 2 4 C0.02 4.33 -1.96 4.66 -4 5 C-4 4.34 -4 3.68 -4 3 C-4.99 2.67 -5.98 2.34 -7 2 C-4.69 1.34 -2.38 0.68 0 0 Z " fill="#2C2731" transform="translate(422,152)"/>
<path d="M0 0 C0 2.97 0 5.94 0 9 C-0.33 9 -0.66 9 -1 9 C-1.33 6.69 -1.66 4.38 -2 2 C-4.64 2.33 -7.28 2.66 -10 3 C-3.66666667 -1.22222222 -3.66666667 -1.22222222 0 0 Z " fill="#9892E7" transform="translate(270,145)"/>
<path d="M0 0 C2.33965571 2.22723982 4.27099166 4.58956647 6.1875 7.1875 C6.71730469 7.90292969 7.24710938 8.61835938 7.79296875 9.35546875 C8.39044922 10.16951172 8.39044922 10.16951172 9 11 C6.2941403 10.32353508 4.48483064 9.64282657 2.77734375 7.37890625 C0 2.59072581 0 2.59072581 0 0 Z " fill="#17161B" transform="translate(878,215)"/>
<path d="M0 0 C4 1.33333333 8 2.66666667 12 4 C12 4.33 12 4.66 12 5 C10.56163249 4.88541307 9.12429034 4.75790884 7.6875 4.625 C6.88699219 4.55539063 6.08648437 4.48578125 5.26171875 4.4140625 C3 4 3 4 0 2 C0 1.34 0 0.68 0 0 Z " fill="#9A95E6" transform="translate(166,203)"/>
<path d="M0 0 C0.66 0 1.32 0 2 0 C2.30466674 5.28089024 2.317124 6.577168 -1 11 C-0.67 7.37 -0.34 3.74 0 0 Z " fill="#9C97E8" transform="translate(236,122)"/>
<path d="M0 0 C0.66 0.33 1.32 0.66 2 1 C-0.64 2.98 -3.28 4.96 -6 7 C-6 6.01 -6 5.02 -6 4 C-3 1.8125 -3 1.8125 0 0 Z " fill="#9C97E8" transform="translate(106,36)"/>
<path d="M0 0 C4.42857143 5.14285714 4.42857143 5.14285714 5 9 C4.01 9.495 4.01 9.495 3 10 C0.96564469 6.27034861 0 4.33094958 0 0 Z " fill="#9E99E8" transform="translate(108,128)"/>
<path d="M0 0 C-0.33 0.66 -0.66 1.32 -1 2 C-4.63 2 -8.26 2 -12 2 C-4.86956522 -1.56521739 -4.86956522 -1.56521739 0 0 Z " fill="#B8B4EE" transform="translate(139,24)"/>
<path d="M0 0 C0.66 0 1.32 0 2 0 C2 0.99 2 1.98 2 3 C2.61875 3.268125 3.2375 3.53625 3.875 3.8125 C6 5 6 5 8 8 C4.64079885 7.00131858 3.24657607 6.34860755 1.1875 3.4375 C0 1 0 1 0 0 Z " fill="#17151A" transform="translate(399,219)"/>
</svg>
